<?xml version="1.0" encoding="utf-8"?>
<!-- Generator: Adobe Illustrator 16.0.0, SVG Export Plug-In . SVG Version: 6.00 Build 0)  -->
<!DOCTYPE svg PUBLIC "-//W3C//DTD SVG 1.1//EN" "http://www.w3.org/Graphics/SVG/1.1/DTD/svg11.dtd">
<svg version="1.1" id="Layer_1" xmlns="http://www.w3.org/2000/svg" xmlns:xlink="http://www.w3.org/1999/xlink" x="0px" y="0px"
	 width="30px" height="30px" viewBox="0 0 30 30" enable-background="new 0 0 30 30" xml:space="preserve">
<path fill="#49A5D5" d="M964.71,483.718v-4.88h-20.798v14.581h4.201v4.88h13.723l3.93,3.932v-3.932h3.146v-14.581H964.71z
	 M948.113,492.607h-3.389v-12.956h19.171v4.066h-15.782V492.607z M968.098,497.486h-3.146v2.779l-2.78-2.779h-13.245v-4.067v-0.812
	v-8.076h14.969h0.814h3.388V497.486z"/>
<path fill="#49A5D5" d="M23.298,8.184v-4.88H2.5v14.581h4.201v4.88h13.723l3.93,3.932v-3.932H27.5V8.184H23.298z M6.701,17.073
	H3.312V4.117h19.171v4.066H6.701V17.073z M26.686,21.952H23.54v2.779l-2.78-2.779H7.515v-4.067v-0.812V8.998h14.969h0.814h3.388
	V21.952z"/>
</svg>
